# xmcd CD database file
#
# Track frame offsets:
#	150
#	12730
#	25606
#	38844
#	52016
#	65477
#	79750
#	92403
#	105087
#	116249
#	126614
#	140824
#	154205
#	168133
#	181730
#	195236
#	207203
#	220674
#	233637
#	247499
#	261963
#	276486
#	289007
#
# Disc length: 4023 seconds
#
# Revision: 2
# Processed by: cddbd v1.5.2PL0 Copyright (c) Steve Scherf et al.
# Submitted via: CDex 1.70beta2
#
DISCID=500fb517
DTITLE=J. B. Lenoir - The Mojo 1951 - 1954
DYEAR=2010
DGENRE=Blues
TTITLE0=I want my Baby
TTITLE1=The mountain
TTITLE2=My Baby told me 
TTITLE3=Eisenhower Blues
TTITLE4=Sitting down thinking
TTITLE5=I´ll die tryin´
TTITLE6=Deep in debt Blues
TTITLE7=Slow down woman
TTITLE8=I have married
TTITLE9=I´m gonna die someday (I must die)
TTITLE10=I´m in Korea
TTITLE11=The Mojo
TTITLE12=How can I leave
TTITLE13=Mamma talk to your daughter
TTITLE14=People are meddling
TTITLE15=Let´s roll
TTITLE16=How much more
TTITLE17=Korea Blues
TTITLE18=Louise
TTITLE19=Man watch your woman
TTITLE20=Tax paying Blues
TTITLE21=Carrie Lee
TTITLE22=Play a little while
EXTD=YEAR: 2010
EXTT0=
EXTT1=
EXTT2=
EXTT3=
EXTT4=
EXTT5=
EXTT6=
EXTT7=
EXTT8=
EXTT9=
EXTT10=
EXTT11=
EXTT12=
EXTT13=
EXTT14=
EXTT15=
EXTT16=
EXTT17=
EXTT18=
EXTT19=
EXTT20=
EXTT21=
EXTT22=
PLAYORDER=
